<svg width="123" height="32" viewBox="0 0 123 32" fill="none" xmlns="http://www.w3.org/2000/svg">
<path d="M46.28 24C46.104 24 45.96 23.944 45.848 23.832C45.736 23.72 45.68 23.576 45.68 23.4V7.8C45.68 7.624 45.736 7.48 45.848 7.368C45.96 7.256 46.104 7.2 46.28 7.2H49.376C49.552 7.2 49.696 7.256 49.808 7.368C49.92 7.48 49.976 7.624 49.976 7.8V13.584H55.904V7.8C55.904 7.624 55.96 7.48 56.072 7.368C56.184 7.256 56.328 7.2 56.504 7.2H59.6C59.776 7.2 59.92 7.256 60.032 7.368C60.144 7.48 60.2 7.624 60.2 7.8V23.4C60.2 23.576 60.144 23.72 60.032 23.832C59.92 23.944 59.776 24 59.6 24H56.504C56.328 24 56.184 23.944 56.072 23.832C55.96 23.72 55.904 23.576 55.904 23.4V17.424H49.976V23.4C49.976 23.576 49.92 23.72 49.808 23.832C49.696 23.944 49.552 24 49.376 24H46.28ZM69.9708 24.24C68.7068 24.24 67.5548 24.064 66.5148 23.712C65.4908 23.344 64.6588 22.816 64.0188 22.128C63.3788 21.44 63.0028 20.6 62.8908 19.608C62.8748 19.464 62.9148 19.344 63.0108 19.248C63.1228 19.152 63.2508 19.104 63.3948 19.104H66.5148C66.7068 19.104 66.8508 19.136 66.9468 19.2C67.0428 19.264 67.1388 19.376 67.2348 19.536C67.3948 19.904 67.6828 20.208 68.0988 20.448C68.5308 20.688 69.1228 20.808 69.8748 20.808C70.8028 20.808 71.5228 20.528 72.0348 19.968C72.5628 19.408 72.8268 18.616 72.8268 17.592V17.208H68.1708C67.9948 17.208 67.8508 17.144 67.7388 17.016C67.6268 16.888 67.5708 16.736 67.5708 16.56V14.64C67.5708 14.464 67.6268 14.312 67.7388 14.184C67.8508 14.056 67.9948 13.992 68.1708 13.992H72.8268V13.656C72.8268 12.536 72.5708 11.72 72.0588 11.208C71.5468 10.68 70.8188 10.416 69.8748 10.416C69.1228 10.416 68.5308 10.544 68.0988 10.8C67.6828 11.056 67.4188 11.36 67.3068 11.712C67.2108 11.872 67.1228 11.984 67.0428 12.048C66.9628 12.112 66.8268 12.144 66.6348 12.144H63.4908C63.3468 12.144 63.2188 12.096 63.1068 12C62.9948 11.888 62.9468 11.76 62.9628 11.616C63.0908 10.576 63.4748 9.712 64.1148 9.024C64.7548 8.336 65.5788 7.824 66.5868 7.488C67.5948 7.136 68.7228 6.96 69.9708 6.96C71.3788 6.96 72.6188 7.208 73.6908 7.704C74.7788 8.184 75.6348 8.928 76.2588 9.936C76.8988 10.928 77.2428 12.208 77.2908 13.776C77.3068 14.272 77.3148 14.704 77.3148 15.072C77.3308 15.424 77.3308 15.784 77.3148 16.152C77.3148 16.504 77.3068 16.928 77.2908 17.424C77.2428 19.008 76.9068 20.304 76.2828 21.312C75.6588 22.32 74.8108 23.064 73.7388 23.544C72.6668 24.008 71.4108 24.24 69.9708 24.24ZM80.4446 18.528C80.2686 18.528 80.1246 18.472 80.0126 18.36C79.9006 18.248 79.8446 18.104 79.8446 17.928V15.672C79.8446 15.496 79.9006 15.352 80.0126 15.24C80.1246 15.128 80.2686 15.072 80.4446 15.072H87.9566C88.1326 15.072 88.2766 15.128 88.3886 15.24C88.5006 15.352 88.5566 15.496 88.5566 15.672V17.928C88.5566 18.104 88.5006 18.248 88.3886 18.36C88.2766 18.472 88.1326 18.528 87.9566 18.528H80.4446ZM95.8901 24C95.7141 24 95.5701 23.944 95.4581 23.832C95.3461 23.72 95.2901 23.576 95.2901 23.4V10.968H91.0181C90.8421 10.968 90.6981 10.912 90.5861 10.8C90.4741 10.672 90.4181 10.528 90.4181 10.368V7.8C90.4181 7.624 90.4741 7.48 90.5861 7.368C90.6981 7.256 90.8421 7.2 91.0181 7.2H103.93C104.106 7.2 104.25 7.256 104.362 7.368C104.474 7.48 104.53 7.624 104.53 7.8V10.368C104.53 10.528 104.474 10.672 104.362 10.8C104.25 10.912 104.106 10.968 103.93 10.968H99.6581V23.4C99.6581 23.576 99.6021 23.72 99.4901 23.832C99.3781 23.944 99.2341 24 99.0581 24H95.8901ZM113.575 24.24C112.103 24.24 110.823 24 109.735 23.52C108.647 23.04 107.799 22.32 107.191 21.36C106.583 20.384 106.247 19.168 106.183 17.712C106.167 17.024 106.159 16.336 106.159 15.648C106.159 14.96 106.167 14.264 106.183 13.56C106.247 12.12 106.583 10.912 107.191 9.936C107.815 8.944 108.671 8.2 109.759 7.704C110.847 7.208 112.119 6.96 113.575 6.96C115.015 6.96 116.279 7.208 117.367 7.704C118.471 8.2 119.335 8.944 119.959 9.936C120.583 10.912 120.919 12.12 120.967 13.56C120.999 14.264 121.015 14.96 121.015 15.648C121.015 16.336 120.999 17.024 120.967 17.712C120.903 19.168 120.567 20.384 119.959 21.36C119.351 22.32 118.503 23.04 117.415 23.52C116.327 24 115.047 24.24 113.575 24.24ZM113.575 20.784C114.423 20.784 115.111 20.528 115.639 20.016C116.183 19.504 116.471 18.688 116.503 17.568C116.535 16.864 116.551 16.2 116.551 15.576C116.551 14.952 116.535 14.304 116.503 13.632C116.471 12.88 116.327 12.272 116.071 11.808C115.831 11.328 115.495 10.976 115.063 10.752C114.631 10.528 114.135 10.416 113.575 10.416C113.031 10.416 112.543 10.528 112.111 10.752C111.679 10.976 111.335 11.328 111.079 11.808C110.823 12.272 110.679 12.88 110.647 13.632C110.631 14.304 110.623 14.952 110.623 15.576C110.623 16.2 110.631 16.864 110.647 17.568C110.695 18.688 110.983 19.504 111.511 20.016C112.039 20.528 112.727 20.784 113.575 20.784Z" fill="#0973FB"/>
<g clip-path="url(#clip0_407_267)">
<path d="M27.2 32H4.8C2.08 32 0 29.92 0 27.2V4.8C0 2.08 2.08 0 4.8 0H27.2C29.92 0 32 2.08 32 4.8V27.2C32 29.92 29.92 32 27.2 32Z" fill="#0973FB" fill-opacity="0.3"/>
<path d="M17.8667 22.1667H8.26666C7.30666 22.1667 6.66666 22.8 6.66666 23.75C6.66666 24.7 7.30666 25.3333 8.26666 25.3333H17.8667C18.8267 25.3333 19.4667 24.7 19.4667 23.75C19.4667 22.8 18.8267 22.1667 17.8667 22.1667ZM8.26666 19H11.4667C12.4267 19 13.0667 18.3667 13.0667 17.4167C13.0667 16.4667 12.4267 15.8333 11.4667 15.8333H8.26666C7.30666 15.8333 6.66666 16.4667 6.66666 17.4167C6.66666 18.3667 7.30666 19 8.26666 19ZM9.86666 0V11.0833C9.86666 11.4 9.86666 11.5583 10.0267 11.875C10.5067 12.6667 11.4667 12.825 12.2667 12.5083L16.2667 10.2917L20.2667 12.5083C20.5867 12.6667 20.7467 12.6667 21.0667 12.6667C22.0267 12.6667 22.6667 12.0333 22.6667 11.0833V0H9.86666Z" fill="#0973FB"/>
</g>
<defs>
<clipPath id="clip0_407_267">
<rect width="32" height="32" fill="white"/>
</clipPath>
</defs>
</svg>
