<svg width="44" height="44" viewBox="0 0 44 44" fill="none" xmlns="http://www.w3.org/2000/svg">
<rect width="44" height="44" rx="22" fill="white"/>
<g clip-path="url(#clip0_658_226)">
<path d="M29.35 32.5H14.65C12.865 32.5 11.5 31.135 11.5 29.35V14.65C11.5 12.865 12.865 11.5 14.65 11.5H29.35C31.135 11.5 32.5 12.865 32.5 14.65V29.35C32.5 31.135 31.135 32.5 29.35 32.5Z" fill="#0973FB" fill-opacity="0.3"/>
<path d="M23.225 26.0469H16.925C16.295 26.0469 15.875 26.4625 15.875 27.0859C15.875 27.7094 16.295 28.125 16.925 28.125H23.225C23.855 28.125 24.275 27.7094 24.275 27.0859C24.275 26.4625 23.855 26.0469 23.225 26.0469ZM16.925 23.9688H19.025C19.655 23.9688 20.075 23.5531 20.075 22.9297C20.075 22.3062 19.655 21.8906 19.025 21.8906H16.925C16.295 21.8906 15.875 22.3062 15.875 22.9297C15.875 23.5531 16.295 23.9688 16.925 23.9688ZM17.975 11.5V18.7734C17.975 18.9813 17.975 19.0852 18.08 19.293C18.395 19.8125 19.025 19.9164 19.55 19.7086L22.175 18.2539L24.8 19.7086C25.01 19.8125 25.115 19.8125 25.325 19.8125C25.955 19.8125 26.375 19.3969 26.375 18.7734V11.5H17.975Z" fill="#0973FB"/>
</g>
<defs>
<clipPath id="clip0_658_226">
<rect width="21" height="21" fill="white" transform="translate(11.5 11.5)"/>
</clipPath>
</defs>
</svg>
