<svg width="18" height="18" viewBox="0 0 18 18" fill="none" xmlns="http://www.w3.org/2000/svg">
    <path d="M5.25 12V5.99999C5.25 5.58578 5.58578 5.25 5.99999 5.25C6.41421 5.25 6.74999 5.58578 6.74999 5.99999V12C6.74998 12.4142 6.4142 12.75 5.99999 12.75C5.58578 12.75 5.25 12.4142 5.25 12Z" fill="#6B7280"/>
    <path d="M8.25 12V5.99999C8.25 5.58578 8.58578 5.25 8.99999 5.25C9.41421 5.25 9.74999 5.58578 9.74999 5.99999V12C9.74998 12.4142 9.4142 12.75 8.99999 12.75C8.58578 12.75 8.25 12.4142 8.25 12Z" fill="#6B7280"/>
    <path d="M11.25 12V5.99999C11.25 5.58578 11.5858 5.25 12 5.25C12.4142 5.25 12.75 5.58578 12.75 5.99999V12C12.75 12.4142 12.4142 12.75 12 12.75C11.5858 12.75 11.25 12.4142 11.25 12Z" fill="#6B7280"/>
    <path d="M1.5 11.268C1.5 10.8538 1.83578 10.518 2.24999 10.518C2.66421 10.518 2.99999 10.8538 2.99999 11.268C2.99999 12.1736 3.04949 12.8502 3.1634 13.3627C3.27541 13.8668 3.4395 14.1651 3.63721 14.3628C3.83493 14.5605 4.13325 14.7246 4.63728 14.8366C5.13381 14.9469 5.78425 14.9968 6.64775 14.9999L6.732 15L6.75136 15.0003C7.15662 15.0105 7.48199 15.3423 7.48199 15.75C7.48199 16.1577 7.15662 16.4895 6.75136 16.4998L6.732 16.5L6.64428 16.4998C5.74188 16.4968 4.96466 16.4459 4.31186 16.3009C3.6295 16.1492 3.03799 15.8849 2.57657 15.4234C2.11516 14.962 1.85079 14.3705 1.69914 13.6882C1.54938 13.0143 1.5 12.2079 1.5 11.268Z" fill="#6B7280"/>
    <path d="M14.9999 11.268C14.9999 10.8538 15.3357 10.518 15.7499 10.518C16.1642 10.518 16.4999 10.8538 16.4999 11.268C16.4999 12.2079 16.4505 13.0143 16.3008 13.6882C16.1491 14.3705 15.8848 14.962 15.4234 15.4234C14.962 15.8849 14.3705 16.1492 13.6881 16.3009C13.0142 16.4506 12.2078 16.5 11.2679 16.5C10.8537 16.5 10.5179 16.1642 10.5179 15.75C10.5179 15.3358 10.8537 15 11.2679 15C12.1736 15 12.8501 14.9505 13.3627 14.8366C13.8667 14.7246 14.165 14.5605 14.3627 14.3628C14.5604 14.1651 14.7245 13.8668 14.8365 13.3627C14.9504 12.8502 14.9999 12.1736 14.9999 11.268Z" fill="#6B7280"/>
    <path d="M14.9999 6.732C14.9999 5.82638 14.9504 5.14983 14.8365 4.63728C14.7245 4.13325 14.5604 3.83493 14.3627 3.63721C14.165 3.4395 13.8667 3.27541 13.3627 3.1634C12.8501 3.04949 12.1736 2.99999 11.2679 2.99999C10.8537 2.99999 10.5179 2.66421 10.5179 2.24999C10.5179 1.83578 10.8537 1.5 11.2679 1.5C12.2078 1.5 13.0142 1.54938 13.6881 1.69914C14.3705 1.85079 14.962 2.11516 15.4234 2.57657C15.8848 3.03799 16.1492 3.6295 16.3008 4.31186C16.4505 4.98571 16.4999 5.79215 16.4999 6.732C16.4999 7.14621 16.1642 7.48199 15.7499 7.48199C15.3357 7.48199 14.9999 7.14621 14.9999 6.732Z" fill="#6B7280"/>
    <path d="M1.5 6.732C1.5 5.79215 1.54938 4.98571 1.69914 4.31186C1.85079 3.62949 2.11516 3.03799 2.57657 2.57657C3.03799 2.11516 3.62949 1.85079 4.31186 1.69914C4.98571 1.54938 5.79215 1.5 6.732 1.5C7.14621 1.5 7.48199 1.83578 7.48199 2.24999C7.48199 2.6642 7.14621 2.99998 6.732 2.99999C5.82638 2.99999 5.14983 3.04949 4.63728 3.1634C4.13325 3.27541 3.83493 3.4395 3.63721 3.63721C3.4395 3.83493 3.27541 4.13325 3.1634 4.63728C3.04949 5.14983 2.99999 5.82638 2.99999 6.732C2.99998 7.14621 2.6642 7.48199 2.24999 7.48199C1.83578 7.48199 1.5 7.14621 1.5 6.732Z" fill="#6B7280"/>
</svg>