<svg width="48" height="48" viewBox="0 0 48 48" fill="none" xmlns="http://www.w3.org/2000/svg">
<rect width="48" height="48" rx="12" fill="url(#paint0_linear_387_1820)"/>
<path d="M25.5 16.5H30V20.3475C30 20.5206 29.9313 20.6865 29.8089 20.8089C29.6865 20.9313 29.5206 21 29.3475 21H26.1525C25.9794 21 25.8135 20.9313 25.6911 20.8089C25.5687 20.6865 25.5 20.5206 25.5 20.3475V16.5Z" fill="white" fill-opacity="0.5"/>
<path d="M33.75 32.25H21.75C21.1533 32.25 20.581 32.0129 20.159 31.591C19.7371 31.169 19.5 30.5967 19.5 30V18C19.5 17.4033 19.7371 16.831 20.159 16.409C20.581 15.9871 21.1533 15.75 21.75 15.75H33.75C34.3467 15.75 34.919 15.9871 35.341 16.409C35.7629 16.831 36 17.4033 36 18V30C36 30.5967 35.7629 31.169 35.341 31.591C34.919 32.0129 34.3467 32.25 33.75 32.25ZM21.75 17.25C21.5511 17.25 21.3603 17.329 21.2197 17.4697C21.079 17.6103 21 17.8011 21 18V30C21 30.1989 21.079 30.3897 21.2197 30.5303C21.3603 30.671 21.5511 30.75 21.75 30.75H33.75C33.9489 30.75 34.1397 30.671 34.2803 30.5303C34.421 30.3897 34.5 30.1989 34.5 30V18C34.5 17.8011 34.421 17.6103 34.2803 17.4697C34.1397 17.329 33.9489 17.25 33.75 17.25H21.75Z" fill="white"/>
<path d="M24.75 29.25H23.25C23.0511 29.25 22.8603 29.171 22.7197 29.0303C22.579 28.8897 22.5 28.6989 22.5 28.5C22.5 28.3011 22.579 28.1103 22.7197 27.9697C22.8603 27.829 23.0511 27.75 23.25 27.75H24.75C24.9489 27.75 25.1397 27.829 25.2803 27.9697C25.421 28.1103 25.5 28.3011 25.5 28.5C25.5 28.6989 25.421 28.8897 25.2803 29.0303C25.1397 29.171 24.9489 29.25 24.75 29.25Z" fill="white"/>
<path d="M17.25 24.75H15.75C15.5511 24.75 15.3603 24.671 15.2197 24.5303C15.079 24.3897 15 24.1989 15 24C15 23.8011 15.079 23.6103 15.2197 23.4697C15.3603 23.329 15.5511 23.25 15.75 23.25H17.25C17.4489 23.25 17.6397 23.329 17.7803 23.4697C17.921 23.6103 18 23.8011 18 24C18 24.1989 17.921 24.3897 17.7803 24.5303C17.6397 24.671 17.4489 24.75 17.25 24.75Z" fill="white" fill-opacity="0.5"/>
<path d="M17.25 21.75H14.25C14.0511 21.75 13.8603 21.671 13.7197 21.5303C13.579 21.3897 13.5 21.1989 13.5 21C13.5 20.8011 13.579 20.6103 13.7197 20.4697C13.8603 20.329 14.0511 20.25 14.25 20.25H17.25C17.4489 20.25 17.6397 20.329 17.7803 20.4697C17.921 20.6103 18 20.8011 18 21C18 21.1989 17.921 21.3897 17.7803 21.5303C17.6397 21.671 17.4489 21.75 17.25 21.75Z" fill="white" fill-opacity="0.5"/>
<path d="M17.25 18.75H12.75C12.5511 18.75 12.3603 18.671 12.2197 18.5303C12.079 18.3897 12 18.1989 12 18C12 17.8011 12.079 17.6103 12.2197 17.4697C12.3603 17.329 12.5511 17.25 12.75 17.25H17.25C17.4489 17.25 17.6397 17.329 17.7803 17.4697C17.921 17.6103 18 17.8011 18 18C18 18.1989 17.921 18.3897 17.7803 18.5303C17.6397 18.671 17.4489 18.75 17.25 18.75Z" fill="white" fill-opacity="0.5"/>
<defs>
<linearGradient id="paint0_linear_387_1820" x1="48" y1="0" x2="0" y2="48" gradientUnits="userSpaceOnUse">
<stop stop-color="#66BFFF"/>
<stop offset="1" stop-color="#0973FB"/>
</linearGradient>
</defs>
</svg>
