<svg width="48" height="48" viewBox="0 0 48 48" fill="none" xmlns="http://www.w3.org/2000/svg">
<rect width="48" height="48" rx="12" fill="url(#paint0_linear_387_1820)"/>
<g clip-path="url(#clip0_387_1820)">
<path d="M15.75 26.25H18.75V28.5C18.75 28.6989 18.671 28.8897 18.5303 29.0303C18.3897 29.171 18.1989 29.25 18 29.25H16.5C16.3011 29.25 16.1103 29.171 15.9697 29.0303C15.829 28.8897 15.75 28.6989 15.75 28.5V26.25Z" fill="white" fill-opacity="0.5"/>
<path d="M20.25 36H14.25C13.6533 36 13.081 35.7629 12.659 35.341C12.2371 34.919 12 34.3467 12 33.75V27.75C12 27.1533 12.2371 26.581 12.659 26.159C13.081 25.7371 13.6533 25.5 14.25 25.5H20.25C20.8467 25.5 21.419 25.7371 21.841 26.159C22.2629 26.581 22.5 27.1533 22.5 27.75V33.75C22.5 34.3467 22.2629 34.919 21.841 35.341C21.419 35.7629 20.8467 36 20.25 36ZM14.25 27C14.0511 27 13.8603 27.079 13.7197 27.2197C13.579 27.3603 13.5 27.5511 13.5 27.75V33.75C13.5 33.9489 13.579 34.1397 13.7197 34.2803C13.8603 34.421 14.0511 34.5 14.25 34.5H20.25C20.4489 34.5 20.6397 34.421 20.7803 34.2803C20.921 34.1397 21 33.9489 21 33.75V27.75C21 27.5511 20.921 27.3603 20.7803 27.2197C20.6397 27.079 20.4489 27 20.25 27H14.25Z" fill="white"/>
<path d="M16.5 33H15.75C15.5511 33 15.3603 32.921 15.2197 32.7803C15.079 32.6397 15 32.4489 15 32.25C15 32.0511 15.079 31.8603 15.2197 31.7197C15.3603 31.579 15.5511 31.5 15.75 31.5H16.5C16.6989 31.5 16.8897 31.579 17.0303 31.7197C17.171 31.8603 17.25 32.0511 17.25 32.25C17.25 32.4489 17.171 32.6397 17.0303 32.7803C16.8897 32.921 16.6989 33 16.5 33Z" fill="white"/>
<path d="M29.25 32.25H24.75C24.5511 32.25 24.3603 32.171 24.2197 32.0303C24.079 31.8897 24 31.6989 24 31.5C24 31.3011 24.079 31.1103 24.2197 30.9697C24.3603 30.829 24.5511 30.75 24.75 30.75H29.25C29.4489 30.75 29.6397 30.671 29.7803 30.5303C29.921 30.3897 30 30.1989 30 30V27.75C30 27.5511 30.079 27.3603 30.2197 27.2197C30.3603 27.079 30.5511 27 30.75 27C30.9489 27 31.1397 27.079 31.2803 27.2197C31.421 27.3603 31.5 27.5511 31.5 27.75V30C31.5 30.5967 31.2629 31.169 30.841 31.591C30.419 32.0129 29.8467 32.25 29.25 32.25Z" fill="white"/>
<path d="M30.75 25.5C30.6453 25.4998 30.5419 25.4776 30.4463 25.435C30.3507 25.3924 30.2651 25.3302 30.195 25.2525C29.715 24.75 25.5 19.9425 25.5 17.25C25.5 15.8576 26.0531 14.5223 27.0377 13.5377C28.0223 12.5531 29.3576 12 30.75 12C32.1424 12 33.4777 12.5531 34.4623 13.5377C35.4469 14.5223 36 15.8576 36 17.25C36 19.9425 31.785 24.75 31.305 25.2525C31.2349 25.3302 31.1493 25.3924 31.0537 25.435C30.9581 25.4776 30.8547 25.4998 30.75 25.5ZM30.75 13.5C29.7554 13.5 28.8016 13.8951 28.0983 14.5983C27.3951 15.3016 27 16.2554 27 17.25C27 18.6825 29.115 21.6675 30.75 23.61C32.385 21.66 34.5 18.6825 34.5 17.25C34.5 16.2554 34.1049 15.3016 33.4017 14.5983C32.6984 13.8951 31.7446 13.5 30.75 13.5Z" fill="white"/>
<path d="M30.75 18.75C30.4533 18.75 30.1633 18.662 29.9166 18.4972C29.67 18.3324 29.4777 18.0981 29.3642 17.824C29.2506 17.5499 29.2209 17.2483 29.2788 16.9574C29.3367 16.6664 29.4796 16.3991 29.6893 16.1893C29.8991 15.9796 30.1664 15.8367 30.4574 15.7788C30.7483 15.7209 31.0499 15.7506 31.324 15.8642C31.5981 15.9777 31.8324 16.17 31.9972 16.4166C32.162 16.6633 32.25 16.9533 32.25 17.25C32.25 17.6478 32.092 18.0294 31.8107 18.3107C31.5294 18.592 31.1478 18.75 30.75 18.75Z" fill="white" fill-opacity="0.5"/>
</g>
<defs>
<linearGradient id="paint0_linear_387_1820" x1="48" y1="0" x2="0" y2="48" gradientUnits="userSpaceOnUse">
<stop stop-color="#66BFFF"/>
<stop offset="1" stop-color="#0973FB"/>
</linearGradient>
<clipPath id="clip0_387_1820">
<rect width="24" height="24" fill="white" transform="translate(12 12)"/>
</clipPath>
</defs>
</svg>
