<svg width="24" height="24" viewBox="0 0 24 24" fill="none" xmlns="http://www.w3.org/2000/svg">
    <path d="M1.25 12C1.25 9.66417 1.24842 7.83685 1.43976 6.41369C1.634 4.96896 2.03932 3.82894 2.93413 2.93413C3.82894 2.03932 4.96896 1.634 6.41369 1.43976C7.83685 1.24842 9.66417 1.25 12 1.25H13.5L13.5194 1.25023C13.9246 1.2605 14.25 1.59226 14.25 2C14.25 2.40774 13.9246 2.7395 13.5194 2.74977L13.5 2.75H12C9.62177 2.75 7.91356 2.75159 6.61358 2.92637C5.33518 3.09825 4.56445 3.42514 3.9948 3.9948C3.42514 4.56445 3.09825 5.33518 2.92637 6.61358C2.75159 7.91356 2.75 9.62177 2.75 12C2.75 14.3782 2.75159 16.0864 2.92637 17.3864C3.09556 18.6449 3.41496 19.4113 3.96825 19.9783L3.9948 20.0052V20.0052C4.56445 20.5749 5.33519 20.9017 6.61358 21.0736C7.91356 21.2484 9.62177 21.25 12 21.25C14.3782 21.25 16.0864 21.2484 17.3864 21.0736C18.6648 20.9017 19.4355 20.5748 20.0052 20.0052L20.0052 20.0052C20.5748 19.4355 20.9017 18.6648 21.0736 17.3864C21.2484 16.0864 21.25 14.3782 21.25 12V10.5C21.25 10.0858 21.5858 9.74999 22 9.74999C22.4142 9.75 22.75 10.0858 22.75 10.5V12C22.75 14.3358 22.7516 16.1631 22.5603 17.5863C22.366 19.031 21.9606 20.171 21.0658 21.0658C20.171 21.9606 19.031 22.366 17.5863 22.5603C16.1631 22.7516 14.3358 22.75 12 22.75C9.66417 22.75 7.83685 22.7516 6.41369 22.5603C4.96896 22.366 3.82894 21.9607 2.93413 21.0658V21.0658C2.03933 20.171 1.63399 19.031 1.43976 17.5863C1.24842 16.1631 1.25 14.3358 1.25 12Z" fill="#6B7280"/>
    <path d="M16.7706 2.27589C18.1278 0.91872 20.3217 0.908117 21.6919 2.2441L21.7241 2.27592L21.7242 2.27595C23.0919 3.64383 23.0919 5.86158 21.7242 7.22946L21.0752 7.87833L21.0752 7.8783L15.1105 13.8431C14.7189 14.2347 14.4801 14.4753 14.2126 14.684L14.2126 14.684C13.9069 14.9224 13.5762 15.1268 13.2263 15.2936L13.2261 15.2937C12.9199 15.4396 12.5979 15.5455 12.0726 15.7206L10.3372 16.2991L9.21428 16.6734C8.67812 16.8521 8.08688 16.7126 7.68716 16.313L7.68701 16.3128C7.28748 15.9131 7.14788 15.3221 7.3266 14.7858L8.27939 11.9274C8.45449 11.4021 8.56048 11.0801 8.70642 10.7738C8.8732 10.4239 9.07764 10.0931 9.31612 9.78737C9.52478 9.51985 9.76547 9.28102 10.1569 8.8896L16.7706 2.27589ZM11.2175 9.95026C10.801 10.3668 10.6377 10.5319 10.4988 10.71L10.4988 10.71C10.3274 10.9297 10.1804 11.1675 10.0605 11.4192C9.96338 11.6229 9.88868 11.8429 9.70243 12.4017L9.27053 13.6975L10.3026 14.7295L11.5983 14.2976C12.157 14.1113 12.377 14.0367 12.5808 13.9396C12.8324 13.8196 13.0703 13.6726 13.29 13.5013L13.3233 13.4749C13.4897 13.3409 13.6593 13.1729 14.0498 12.7825L19.1052 7.72704C18.5892 7.50515 17.9882 7.14947 17.4194 6.58065C16.8505 6.01184 16.4948 5.41076 16.2729 4.89479L11.2175 9.95026ZM20.6451 3.31839C19.8616 2.55452 18.6073 2.56059 17.8313 3.33658L17.4546 3.71319C17.4773 3.80905 17.509 3.92327 17.5532 4.05066C17.6965 4.46371 17.9677 5.00771 18.48 5.51999C18.9923 6.03226 19.5363 6.30346 19.9493 6.44677C20.0767 6.49097 20.191 6.52268 20.2868 6.54538L20.6635 6.16877C21.4455 5.38668 21.4455 4.11868 20.6635 3.33658L20.6451 3.31839Z" fill="#6B7280"/>
</svg>