<svg width="28" height="28" viewBox="0 0 28 28" fill="none" xmlns="http://www.w3.org/2000/svg">
    <path fill-rule="evenodd" clip-rule="evenodd" d="M11.3251 2.81019C10.5 3.54167 10.5 4.87972 10.5 7.55583V20.4442C10.5 23.1203 10.5 24.4584 11.3251 25.1899C12.1502 25.9214 13.4114 25.7014 15.9339 25.2614L18.6508 24.7876C21.4444 24.3003 22.8411 24.0567 23.6706 23.032C24.5 22.0075 24.5 20.5256 24.5 17.5618V10.4383C24.5 7.47453 24.5 5.99264 23.6706 4.968C22.8411 3.94336 21.4444 3.69975 18.6508 3.2125L15.9339 2.73862C13.4114 2.29867 12.1502 2.0787 11.3251 2.81019ZM14 11.8634C14.4832 11.8634 14.875 12.2734 14.875 12.7791V15.221C14.875 15.7267 14.4832 16.1367 14 16.1367C13.5168 16.1367 13.125 15.7267 13.125 15.221V12.7791C13.125 12.2734 13.5168 11.8634 14 11.8634Z" fill="white"/>
    <path d="M8.80503 5.25C6.4037 5.2535 5.15199 5.3063 4.35427 6.10402C3.5 6.95829 3.5 8.33322 3.5 11.0831V16.9164C3.5 19.6663 3.5 21.0412 4.35427 21.8955C5.15199 22.6932 6.4037 22.746 8.80503 22.7495C8.74982 22.0223 8.74991 21.1817 8.75001 20.2729V7.72648C8.74991 6.81786 8.74982 5.97718 8.80503 5.25Z" fill="white"/>
</svg>