<svg width="48" height="48" viewBox="0 0 48 48" fill="none" xmlns="http://www.w3.org/2000/svg">
<rect width="48" height="48" rx="12" fill="url(#paint0_linear_387_1820)"/>
<path fill-rule="evenodd" clip-rule="evenodd" d="M22 16H26C29.7712 16 31.6569 16 32.8284 17.1716C34 18.3431 34 20.2288 34 24C34 27.7712 34 29.6569 32.8284 30.8284C31.6569 32 29.7712 32 26 32H22C18.2288 32 16.3431 32 15.1716 30.8284C14 29.6569 14 27.7712 14 24C14 20.2288 14 18.3431 15.1716 17.1716C16.3431 16 18.2288 16 22 16ZM25.25 21C25.25 20.5858 25.5858 20.25 26 20.25H31C31.4142 20.25 31.75 20.5858 31.75 21C31.75 21.4142 31.4142 21.75 31 21.75H26C25.5858 21.75 25.25 21.4142 25.25 21ZM26.25 24C26.25 23.5858 26.5858 23.25 27 23.25H31C31.4142 23.25 31.75 23.5858 31.75 24C31.75 24.4142 31.4142 24.75 31 24.75H27C26.5858 24.75 26.25 24.4142 26.25 24ZM27.25 27C27.25 26.5858 27.5858 26.25 28 26.25H31C31.4142 26.25 31.75 26.5858 31.75 27C31.75 27.4142 31.4142 27.75 31 27.75H28C27.5858 27.75 27.25 27.4142 27.25 27ZM23 21C23 22.1046 22.1046 23 21 23C19.8954 23 19 22.1046 19 21C19 19.8954 19.8954 19 21 19C22.1046 19 23 19.8954 23 21ZM21 29C25 29 25 28.1046 25 27C25 25.8954 23.2091 25 21 25C18.7909 25 17 25.8954 17 27C17 28.1046 17 29 21 29Z" fill="white"/>
<defs>
<linearGradient id="paint0_linear_387_1820" x1="48" y1="0" x2="0" y2="48" gradientUnits="userSpaceOnUse">
<stop stop-color="#66BFFF"/>
<stop offset="1" stop-color="#0973FB"/>
</linearGradient>
</defs>
</svg>
