<svg width="48" height="48" viewBox="0 0 48 48" fill="none" xmlns="http://www.w3.org/2000/svg">
<rect width="48" height="48" rx="12" fill="url(#paint0_linear_387_1820)"/>
<path d="M27.5562 26.4062L27.1007 26.859C27.1007 26.859 26.0181 27.9355 23.0631 24.9972C20.1081 22.059 21.1907 20.9826 21.1907 20.9826L21.4775 20.6974C22.1841 19.9948 22.2507 18.8669 21.6342 18.0435L20.3733 16.3591C19.6103 15.3399 18.136 15.2053 17.2614 16.0748L15.6918 17.6355C15.2582 18.0667 14.9676 18.6256 15.0029 19.2456C15.093 20.8318 15.8107 24.2447 19.8154 28.2266C24.0621 32.4492 28.0468 32.617 29.6763 32.4651C30.1917 32.4171 30.6399 32.1546 31.0011 31.7954L32.4217 30.383C33.3806 29.4295 33.1102 27.7949 31.8833 27.128L29.9728 26.0894C29.1672 25.6515 28.1858 25.7801 27.5562 26.4062Z" fill="white"/>
<defs>
<linearGradient id="paint0_linear_387_1820" x1="48" y1="0" x2="0" y2="48" gradientUnits="userSpaceOnUse">
<stop stop-color="#66BFFF"/>
<stop offset="1" stop-color="#0973FB"/>
</linearGradient>
</defs>
</svg>
