<svg width="64" height="64" viewBox="0 0 64 64" fill="none" xmlns="http://www.w3.org/2000/svg">
<rect width="64" height="64" rx="12" fill="url(#paint0_linear_473_130)"/>
<path d="M29.375 31.125H34.625V34.4325C34.625 34.7156 34.5125 34.9871 34.3123 35.1873C34.1121 35.3875 33.8406 35.5 33.5575 35.5H30.4425C30.1594 35.5 29.8879 35.3875 29.6877 35.1873C29.4875 34.9871 29.375 34.7156 29.375 34.4325V31.125Z" fill="white" fill-opacity="0.5"/>
<path d="M43.9962 27.0037C43.9149 26.9217 43.8181 26.8566 43.7115 26.8122C43.6049 26.7677 43.4905 26.7449 43.375 26.7449C43.2595 26.7449 43.1451 26.7677 43.0385 26.8122C42.9318 26.8566 42.8351 26.9217 42.7537 27.0037L39.5162 30.2499H24.4837L21.2462 27.0037C21.0815 26.8389 20.858 26.7464 20.625 26.7464C20.392 26.7464 20.1685 26.8389 20.0037 27.0037C19.839 27.1685 19.7464 27.3919 19.7464 27.6249C19.7464 27.858 19.839 28.0814 20.0037 28.2462L23.25 31.4837V43.3749C23.25 44.0711 23.5265 44.7388 24.0188 45.2311C24.5111 45.7234 25.1788 45.9999 25.875 45.9999H38.125C38.8212 45.9999 39.4889 45.7234 39.9811 45.2311C40.4734 44.7388 40.75 44.0711 40.75 43.3749V31.4837L43.9962 28.2462C44.0782 28.1649 44.1433 28.0681 44.1878 27.9615C44.2322 27.8548 44.2551 27.7405 44.2551 27.6249C44.2551 27.5094 44.2322 27.3951 44.1878 27.2884C44.1433 27.1818 44.0782 27.085 43.9962 27.0037ZM39 43.3749C39 43.607 38.9078 43.8296 38.7437 43.9937C38.5796 44.1578 38.357 44.2499 38.125 44.2499H25.875C25.6429 44.2499 25.4204 44.1578 25.2563 43.9937C25.0922 43.8296 25 43.607 25 43.3749V31.9999H39V43.3749Z" fill="white"/>
<path d="M29.375 42.5H27.625C27.3929 42.5 27.1704 42.4078 27.0063 42.2437C26.8422 42.0796 26.75 41.8571 26.75 41.625C26.75 41.3929 26.8422 41.1704 27.0063 41.0063C27.1704 40.8422 27.3929 40.75 27.625 40.75H29.375C29.6071 40.75 29.8296 40.8422 29.9937 41.0063C30.1578 41.1704 30.25 41.3929 30.25 41.625C30.25 41.8571 30.1578 42.0796 29.9937 42.2437C29.8296 42.4078 29.6071 42.5 29.375 42.5Z" fill="white"/>
<path d="M32 28.5C34.8995 28.5 37.25 26.1495 37.25 23.25C37.25 20.3505 34.8995 18 32 18C29.1005 18 26.75 20.3505 26.75 23.25C26.75 26.1495 29.1005 28.5 32 28.5Z" fill="white" fill-opacity="0.5"/>
<path d="M32 25.875C31.8848 25.8757 31.7707 25.8536 31.6641 25.8101C31.5575 25.7665 31.4605 25.7024 31.3787 25.6213L28.7537 22.9963C28.589 22.8315 28.4964 22.6081 28.4964 22.375C28.4964 22.142 28.589 21.9186 28.7537 21.7538C28.9185 21.589 29.142 21.4965 29.375 21.4965C29.608 21.4965 29.8315 21.589 29.9962 21.7538L32 23.7663L36.6287 19.1288C36.7935 18.964 37.017 18.8715 37.25 18.8715C37.483 18.8715 37.7065 18.964 37.8712 19.1288C38.036 19.2936 38.1286 19.517 38.1286 19.75C38.1286 19.9831 38.036 20.2065 37.8712 20.3713L32.6212 25.6213C32.5395 25.7024 32.4425 25.7665 32.3359 25.8101C32.2293 25.8536 32.1151 25.8757 32 25.875Z" fill="white"/>
<defs>
<linearGradient id="paint0_linear_473_130" x1="64" y1="-3.8147e-06" x2="-3.8147e-06" y2="64" gradientUnits="userSpaceOnUse">
<stop stop-color="#A7A7A7"/>
<stop offset="1" stop-color="#697386"/>
</linearGradient>
</defs>
</svg>
