<svg width="64" height="64" viewBox="0 0 64 64" fill="none" xmlns="http://www.w3.org/2000/svg">
<rect width="64" height="64" rx="12" fill="url(#paint0_linear_470_519)"/>
<path d="M29.1428 21.4285H34.2857V25.8256C34.2857 26.0234 34.2071 26.2131 34.0673 26.3529C33.9274 26.4928 33.7377 26.5713 33.54 26.5713H29.8885C29.6908 26.5713 29.5011 26.4928 29.3612 26.3529C29.2214 26.2131 29.1428 26.0234 29.1428 25.8256V21.4285Z" fill="white" fill-opacity="0.5"/>
<path d="M30 42.8571H23.1428C22.4609 42.8571 21.8068 42.5862 21.3246 42.104C20.8423 41.6217 20.5714 40.9677 20.5714 40.2857V23.1428C20.5714 22.4609 20.8423 21.8068 21.3246 21.3246C21.8068 20.8423 22.4609 20.5714 23.1428 20.5714H40.2857C40.9677 20.5714 41.6217 20.8423 42.104 21.3246C42.5862 21.8068 42.8571 22.4609 42.8571 23.1428V30C42.8571 30.2273 42.7668 30.4453 42.6061 30.6061C42.4453 30.7668 42.2273 30.8571 42 30.8571C41.7727 30.8571 41.5546 30.7668 41.3939 30.6061C41.2331 30.4453 41.1428 30.2273 41.1428 30V23.1428C41.1428 22.9155 41.0525 22.6975 40.8918 22.5367C40.731 22.376 40.513 22.2857 40.2857 22.2857H23.1428C22.9155 22.2857 22.6975 22.376 22.5367 22.5367C22.376 22.6975 22.2857 22.9155 22.2857 23.1428V40.2857C22.2857 40.513 22.376 40.731 22.5367 40.8918C22.6975 41.0525 22.9155 41.1428 23.1428 41.1428H30C30.2273 41.1428 30.4453 41.2331 30.6061 41.3939C30.7668 41.5546 30.8571 41.7727 30.8571 42C30.8571 42.2273 30.7668 42.4453 30.6061 42.6061C30.4453 42.7668 30.2273 42.8571 30 42.8571Z" fill="white"/>
<path d="M26.5714 39.4286H24.8571C24.6298 39.4286 24.4118 39.3383 24.2511 39.1775C24.0903 39.0168 24 38.7988 24 38.5714C24 38.3441 24.0903 38.1261 24.2511 37.9653C24.4118 37.8046 24.6298 37.7143 24.8571 37.7143H26.5714C26.7988 37.7143 27.0168 37.8046 27.1775 37.9653C27.3383 38.1261 27.4286 38.3441 27.4286 38.5714C27.4286 38.7988 27.3383 39.0168 27.1775 39.1775C27.0168 39.3383 26.7988 39.4286 26.5714 39.4286Z" fill="white"/>
<path d="M40.2857 48C38.76 48 37.2685 47.5476 35.9999 46.6999C34.7313 45.8522 33.7425 44.6474 33.1586 43.2378C32.5748 41.8282 32.422 40.2771 32.7196 38.7807C33.0173 37.2843 33.752 35.9097 34.8309 34.8309C35.9097 33.752 37.2843 33.0173 38.7807 32.7196C40.2771 32.422 41.8282 32.5748 43.2378 33.1586C44.6474 33.7425 45.8522 34.7313 46.6999 35.9999C47.5476 37.2685 48 38.76 48 40.2857C48 42.3317 47.1872 44.2938 45.7405 45.7405C44.2938 47.1872 42.3317 48 40.2857 48ZM40.2857 34.2857C39.099 34.2857 37.939 34.6376 36.9523 35.2969C35.9656 35.9562 35.1965 36.8932 34.7424 37.9896C34.2883 39.086 34.1695 40.2924 34.401 41.4562C34.6325 42.6201 35.2039 43.6892 36.0431 44.5283C36.8822 45.3675 37.9513 45.9389 39.1152 46.1704C40.279 46.4019 41.4854 46.2831 42.5818 45.829C43.6782 45.3749 44.6152 44.6058 45.2745 43.6191C45.9338 42.6324 46.2857 41.4724 46.2857 40.2857C46.2857 38.6944 45.6536 37.1683 44.5283 36.0431C43.4031 34.9178 41.877 34.2857 40.2857 34.2857Z" fill="white"/>
<path d="M40.2857 44.5714C42.6526 44.5714 44.5714 42.6526 44.5714 40.2857C44.5714 37.9187 42.6526 35.9999 40.2857 35.9999C37.9188 35.9999 36 37.9187 36 40.2857C36 42.6526 37.9188 44.5714 40.2857 44.5714Z" fill="white" fill-opacity="0.5"/>
<path d="M40.2857 42.8569C40.1729 42.8575 40.0611 42.8359 39.9566 42.7932C39.8522 42.7506 39.7572 42.6877 39.6771 42.6083L37.9628 40.894C37.8014 40.7326 37.7108 40.5137 37.7108 40.2854C37.7108 40.0572 37.8014 39.8383 37.9628 39.6769C38.1242 39.5155 38.3431 39.4248 38.5714 39.4248C38.7997 39.4248 39.0186 39.5155 39.18 39.6769L40.2857 40.7912L43.1057 37.9626C43.2671 37.8012 43.486 37.7105 43.7143 37.7105C43.9425 37.7105 44.1614 37.8012 44.3228 37.9626C44.4842 38.124 44.5749 38.3429 44.5749 38.5712C44.5749 38.7994 44.4842 39.0183 44.3228 39.1797L40.8943 42.6083C40.8142 42.6877 40.7192 42.7506 40.6148 42.7932C40.5103 42.8359 40.3985 42.8575 40.2857 42.8569Z" fill="white"/>
<defs>
<linearGradient id="paint0_linear_470_519" x1="64" y1="-3.8147e-06" x2="-3.8147e-06" y2="64" gradientUnits="userSpaceOnUse">
<stop stop-color="#66BFFF"/>
<stop offset="1" stop-color="#0973FB"/>
</linearGradient>
</defs>
</svg>
