<svg width="64" height="64" viewBox="0 0 64 64" fill="none" xmlns="http://www.w3.org/2000/svg">
<rect width="64" height="64" rx="12" fill="url(#paint0_linear_470_484)"/>
<g clip-path="url(#clip0_470_484)">
<path d="M23 21H29V24.88C29 25.177 28.882 25.4619 28.672 25.672C28.4619 25.882 28.177 26 27.88 26H24.12C23.823 26 23.5381 25.882 23.328 25.672C23.118 25.4619 23 25.177 23 24.88V21Z" fill="white" fill-opacity="0.5"/>
<path d="M47.41 33L45.87 31.46L44.18 26.37C44.0475 25.9709 43.7926 25.6237 43.4515 25.3777C43.1105 25.1318 42.7005 24.9996 42.28 25H36V23C36 22.2044 35.6839 21.4413 35.1213 20.8787C34.5587 20.3161 33.7956 20 33 20H19C18.2044 20 17.4413 20.3161 16.8787 20.8787C16.3161 21.4413 16 22.2044 16 23V38C16 38.7956 16.3161 39.5587 16.8787 40.1213C17.4413 40.6839 18.2044 41 19 41H20.14C20.3834 41.9427 20.9622 42.7642 21.768 43.3106C22.5738 43.857 23.5512 44.0908 24.517 43.9681C25.4828 43.8454 26.3707 43.3747 27.0143 42.6442C27.6579 41.9137 28.013 40.9736 28.013 40C28.013 39.0264 27.6579 38.0863 27.0143 37.3558C26.3707 36.6253 25.4828 36.1546 24.517 36.0319C23.5512 35.9092 22.5738 36.143 21.768 36.6894C20.9622 37.2358 20.3834 38.0573 20.14 39H19C18.7348 39 18.4804 38.8946 18.2929 38.7071C18.1054 38.5196 18 38.2652 18 38V23C18 22.7348 18.1054 22.4804 18.2929 22.2929C18.4804 22.1054 18.7348 22 19 22H33C33.2652 22 33.5196 22.1054 33.7071 22.2929C33.8946 22.4804 34 22.7348 34 23V39H31C30.7348 39 30.4804 39.1054 30.2929 39.2929C30.1054 39.4804 30 39.7348 30 40C30 40.2652 30.1054 40.5196 30.2929 40.7071C30.4804 40.8946 30.7348 41 31 41H37.14C37.3703 41.8474 37.873 42.5954 38.5706 43.1287C39.2682 43.6621 40.1219 43.951 41 43.951C41.8781 43.951 42.7318 43.6621 43.4294 43.1287C44.127 42.5954 44.6297 41.8474 44.86 41H46C46.5304 41 47.0391 40.7893 47.4142 40.4142C47.7893 40.0391 48 39.5304 48 39V34.41C47.9978 33.8804 47.7856 33.3734 47.41 33ZM24 38C24.3956 38 24.7822 38.1173 25.1111 38.3371C25.44 38.5568 25.6964 38.8692 25.8478 39.2346C25.9991 39.6001 26.0387 40.0022 25.9616 40.3902C25.8844 40.7781 25.6939 41.1345 25.4142 41.4142C25.1345 41.6939 24.7781 41.8844 24.3902 41.9616C24.0022 42.0387 23.6001 41.9991 23.2346 41.8478C22.8692 41.6964 22.5568 41.44 22.3371 41.1111C22.1173 40.7822 22 40.3956 22 40C22 39.4696 22.2107 38.9609 22.5858 38.5858C22.9609 38.2107 23.4696 38 24 38ZM43.61 31H40V27H42.28L43.61 31ZM41 42C40.6044 42 40.2178 41.8827 39.8889 41.6629C39.56 41.4432 39.3036 41.1308 39.1522 40.7654C39.0009 40.3999 38.9613 39.9978 39.0384 39.6098C39.1156 39.2219 39.3061 38.8655 39.5858 38.5858C39.8655 38.3061 40.2219 38.1156 40.6098 38.0384C40.9978 37.9613 41.3999 38.0009 41.7654 38.1522C42.1308 38.3036 42.4432 38.56 42.6629 38.8889C42.8827 39.2178 43 39.6044 43 40C43 40.5304 42.7893 41.0391 42.4142 41.4142C42.0391 41.7893 41.5304 42 41 42ZM46 39H44.86C44.6297 38.1526 44.127 37.4046 43.4294 36.8713C42.7318 36.3379 41.8781 36.049 41 36.049C40.1219 36.049 39.2682 36.3379 38.5706 36.8713C37.873 37.4046 37.3703 38.1526 37.14 39H36V27H38V32C38 32.2652 38.1054 32.5196 38.2929 32.7071C38.4804 32.8946 38.7348 33 39 33H44.59L46 34.41V39Z" fill="white"/>
</g>
<defs>
<linearGradient id="paint0_linear_470_484" x1="64" y1="-3.8147e-06" x2="-3.8147e-06" y2="64" gradientUnits="userSpaceOnUse">
<stop stop-color="#66FF7D"/>
<stop offset="1" stop-color="#10B981"/>
</linearGradient>
<clipPath id="clip0_470_484">
<rect width="32" height="32" fill="white" transform="translate(16 16)"/>
</clipPath>
</defs>
</svg>
