<svg width="64" height="64" viewBox="0 0 64 64" fill="none" xmlns="http://www.w3.org/2000/svg">
<rect width="64" height="64" rx="16" fill="url(#paint0_linear_473_164)"/>
<path d="M29.5 22.75H34V26.5975C34 26.7706 33.9313 26.9365 33.8089 27.0589C33.6865 27.1813 33.5206 27.25 33.3475 27.25H30.1525C29.9794 27.25 29.8135 27.1813 29.6911 27.0589C29.5687 26.9365 29.5 26.7706 29.5 26.5975V22.75Z" fill="white" fill-opacity="0.5"/>
<path d="M30.25 41.5H24.25C23.6533 41.5 23.081 41.2629 22.659 40.841C22.2371 40.419 22 39.8467 22 39.25V24.25C22 23.6533 22.2371 23.081 22.659 22.659C23.081 22.2371 23.6533 22 24.25 22H39.25C39.8467 22 40.419 22.2371 40.841 22.659C41.2629 23.081 41.5 23.6533 41.5 24.25V30.25C41.5 30.4489 41.421 30.6397 41.2803 30.7803C41.1397 30.921 40.9489 31 40.75 31C40.5511 31 40.3603 30.921 40.2197 30.7803C40.079 30.6397 40 30.4489 40 30.25V24.25C40 24.0511 39.921 23.8603 39.7803 23.7197C39.6397 23.579 39.4489 23.5 39.25 23.5H24.25C24.0511 23.5 23.8603 23.579 23.7197 23.7197C23.579 23.8603 23.5 24.0511 23.5 24.25V39.25C23.5 39.4489 23.579 39.6397 23.7197 39.7803C23.8603 39.921 24.0511 40 24.25 40H30.25C30.4489 40 30.6397 40.079 30.7803 40.2197C30.921 40.3603 31 40.5511 31 40.75C31 40.9489 30.921 41.1397 30.7803 41.2803C30.6397 41.421 30.4489 41.5 30.25 41.5Z" fill="white"/>
<path d="M27.25 38.5H25.75C25.5511 38.5 25.3603 38.421 25.2197 38.2803C25.079 38.1397 25 37.9489 25 37.75C25 37.5511 25.079 37.3603 25.2197 37.2197C25.3603 37.079 25.5511 37 25.75 37H27.25C27.4489 37 27.6397 37.079 27.7803 37.2197C27.921 37.3603 28 37.5511 28 37.75C28 37.9489 27.921 38.1397 27.7803 38.2803C27.6397 38.421 27.4489 38.5 27.25 38.5Z" fill="white"/>
<path d="M39.25 46C37.915 46 36.6099 45.6041 35.4999 44.8624C34.3899 44.1207 33.5247 43.0665 33.0138 41.8331C32.5029 40.5997 32.3693 39.2425 32.6297 37.9331C32.8902 36.6238 33.533 35.421 34.477 34.477C35.421 33.533 36.6238 32.8902 37.9331 32.6297C39.2425 32.3693 40.5997 32.5029 41.8331 33.0138C43.0665 33.5247 44.1207 34.3899 44.8624 35.4999C45.6041 36.6099 46 37.915 46 39.25C46 41.0402 45.2888 42.7571 44.023 44.023C42.7571 45.2888 41.0402 46 39.25 46ZM39.25 34C38.2117 34 37.1966 34.3079 36.3333 34.8848C35.4699 35.4617 34.797 36.2816 34.3996 37.2409C34.0023 38.2002 33.8983 39.2558 34.1009 40.2742C34.3035 41.2926 34.8035 42.2281 35.5377 42.9623C36.2719 43.6965 37.2074 44.1966 38.2258 44.3991C39.2442 44.6017 40.2998 44.4977 41.2591 44.1004C42.2184 43.703 43.0383 43.0301 43.6152 42.1667C44.1921 41.3034 44.5 40.2884 44.5 39.25C44.5 37.8576 43.9469 36.5223 42.9623 35.5377C41.9777 34.5531 40.6424 34 39.25 34Z" fill="white"/>
<path d="M37 42.25C36.9013 42.2506 36.8035 42.2317 36.7121 42.1943C36.6207 42.157 36.5376 42.102 36.4675 42.0325C36.3972 41.9628 36.3414 41.8798 36.3033 41.7884C36.2653 41.697 36.2457 41.599 36.2457 41.5C36.2457 41.401 36.2653 41.303 36.3033 41.2116C36.3414 41.1202 36.3972 41.0372 36.4675 40.9675L38.5 38.9425V36.25C38.5 36.0511 38.579 35.8603 38.7197 35.7197C38.8603 35.579 39.0511 35.5 39.25 35.5C39.4489 35.5 39.6397 35.579 39.7803 35.7197C39.921 35.8603 40 36.0511 40 36.25V39.25C40.0006 39.3487 39.9817 39.4466 39.9443 39.5379C39.907 39.6293 39.852 39.7124 39.7825 39.7825L37.5325 42.0325C37.4624 42.102 37.3793 42.157 37.2879 42.1943C37.1966 42.2317 37.0987 42.2506 37 42.25Z" fill="white" fill-opacity="0.5"/>
<defs>
<linearGradient id="paint0_linear_473_164" x1="64" y1="-3.8147e-06" x2="-3.8147e-06" y2="64" gradientUnits="userSpaceOnUse">
<stop stop-color="#C5A8FF"/>
<stop offset="1" stop-color="#8E77B8"/>
</linearGradient>
</defs>
</svg>
