<svg width="64" height="64" viewBox="0 0 64 64" fill="none" xmlns="http://www.w3.org/2000/svg">
<rect width="64" height="64" rx="12" fill="url(#paint0_linear_470_455)"/>
<path d="M40 22H38C38 21.4696 37.7893 20.9609 37.4142 20.5858C37.0391 20.2107 36.5304 20 36 20H35V19C35 18.2044 34.6839 17.4413 34.1213 16.8787C33.5587 16.3161 32.7956 16 32 16C31.2044 16 30.4413 16.3161 29.8787 16.8787C29.3161 17.4413 29 18.2044 29 19V20H28C27.4696 20 26.9609 20.2107 26.5858 20.5858C26.2107 20.9609 26 21.4696 26 22H24C23.2044 22 22.4413 22.3161 21.8787 22.8787C21.3161 23.4413 21 24.2044 21 25V45C21 45.7956 21.3161 46.5587 21.8787 47.1213C22.4413 47.6839 23.2044 48 24 48H33C33.2652 48 33.5196 47.8946 33.7071 47.7071C33.8946 47.5196 34 47.2652 34 47C34 46.7348 33.8946 46.4804 33.7071 46.2929C33.5196 46.1054 33.2652 46 33 46H24C23.7348 46 23.4804 45.8946 23.2929 45.7071C23.1054 45.5196 23 45.2652 23 45V25C23 24.7348 23.1054 24.4804 23.2929 24.2929C23.4804 24.1054 23.7348 24 24 24H26C26 24.5304 26.2107 25.0391 26.5858 25.4142C26.9609 25.7893 27.4696 26 28 26H36C36.5304 26 37.0391 25.7893 37.4142 25.4142C37.7893 25.0391 38 24.5304 38 24H40C40.2652 24 40.5196 24.1054 40.7071 24.2929C40.8946 24.4804 41 24.7348 41 25V33C41 33.2652 41.1054 33.5196 41.2929 33.7071C41.4804 33.8946 41.7348 34 42 34C42.2652 34 42.5196 33.8946 42.7071 33.7071C42.8946 33.5196 43 33.2652 43 33V25C43 24.2044 42.6839 23.4413 42.1213 22.8787C41.5587 22.3161 40.7956 22 40 22ZM31 19C31 18.7348 31.1054 18.4804 31.2929 18.2929C31.4804 18.1054 31.7348 18 32 18C32.2652 18 32.5196 18.1054 32.7071 18.2929C32.8946 18.4804 33 18.7348 33 19V20H31V19ZM28 24V22H36V23V24H28Z" fill="white"/>
<path d="M33 40C32.7687 39.9986 32.5451 39.9172 32.3671 39.7695C32.1891 39.6217 32.0679 39.4169 32.024 39.1898C31.9801 38.9628 32.0162 38.7275 32.1263 38.5241C32.2364 38.3207 32.4136 38.1617 32.6277 38.0742C32.8418 37.9868 33.0796 37.9763 33.3006 38.0444C33.5216 38.1126 33.7121 38.2553 33.8398 38.4482C33.9674 38.6411 34.0242 38.8722 34.0006 39.1023C33.9769 39.3324 33.8742 39.5471 33.71 39.71C33.5184 39.8927 33.2648 39.9963 33 40Z" fill="white" fill-opacity="0.5"/>
<path d="M27 41C26.8684 41.0008 26.7379 40.9755 26.6161 40.9258C26.4943 40.876 26.3834 40.8027 26.29 40.71L25.29 39.71C25.1017 39.5217 24.9959 39.2663 24.9959 39C24.9959 38.7337 25.1017 38.4783 25.29 38.29C25.4783 38.1017 25.7337 37.9959 26 37.9959C26.2663 37.9959 26.5217 38.1017 26.71 38.29L27 38.59L28.29 37.29C28.3832 37.1968 28.4939 37.1228 28.6158 37.0723C28.7376 37.0219 28.8681 36.9959 29 36.9959C29.1319 36.9959 29.2624 37.0219 29.3843 37.0723C29.5061 37.1228 29.6168 37.1968 29.71 37.29C29.8032 37.3832 29.8772 37.4939 29.9277 37.6158C29.9781 37.7376 30.0041 37.8681 30.0041 38C30.0041 38.1319 29.9781 38.2624 29.9277 38.3843C29.8772 38.5061 29.8032 38.6168 29.71 38.71L27.71 40.71C27.6166 40.8027 27.5057 40.876 27.3839 40.9258C27.2621 40.9755 27.1316 41.0008 27 41Z" fill="white" fill-opacity="0.5"/>
<path d="M38 32H33C32.7348 32 32.4804 31.8946 32.2929 31.7071C32.1054 31.5196 32 31.2652 32 31C32 30.7348 32.1054 30.4804 32.2929 30.2929C32.4804 30.1054 32.7348 30 33 30H38C38.2652 30 38.5196 30.1054 38.7071 30.2929C38.8946 30.4804 39 30.7348 39 31C39 31.2652 38.8946 31.5196 38.7071 31.7071C38.5196 31.8946 38.2652 32 38 32Z" fill="white" fill-opacity="0.5"/>
<path d="M27 33C26.8684 33.0008 26.7379 32.9755 26.6161 32.9258C26.4943 32.876 26.3834 32.8027 26.29 32.71L25.29 31.71C25.1017 31.5217 24.9959 31.2663 24.9959 31C24.9959 30.7337 25.1017 30.4783 25.29 30.29C25.4783 30.1017 25.7337 29.9959 26 29.9959C26.2663 29.9959 26.5217 30.1017 26.71 30.29L27 30.59L28.29 29.29C28.4783 29.1017 28.7337 28.9959 29 28.9959C29.2663 28.9959 29.5217 29.1017 29.71 29.29C29.8983 29.4783 30.0041 29.7337 30.0041 30C30.0041 30.2663 29.8983 30.5217 29.71 30.71L27.71 32.71C27.6166 32.8027 27.5057 32.876 27.3839 32.9258C27.2621 32.9755 27.1316 33.0008 27 33Z" fill="white" fill-opacity="0.5"/>
<path d="M40 37H44V40C44 40.2652 43.8946 40.5196 43.7071 40.7071C43.5196 40.8946 43.2652 41 43 41H41C40.7348 41 40.4804 40.8946 40.2929 40.7071C40.1054 40.5196 40 40.2652 40 40V37Z" fill="white" fill-opacity="0.5"/>
<path d="M45 48H39C38.2044 48 37.4413 47.6839 36.8787 47.1213C36.3161 46.5587 36 45.7956 36 45V39C36 38.2044 36.3161 37.4413 36.8787 36.8787C37.4413 36.3161 38.2044 36 39 36H45C45.7956 36 46.5587 36.3161 47.1213 36.8787C47.6839 37.4413 48 38.2044 48 39V45C48 45.7956 47.6839 46.5587 47.1213 47.1213C46.5587 47.6839 45.7956 48 45 48ZM39 38C38.7348 38 38.4804 38.1054 38.2929 38.2929C38.1054 38.4804 38 38.7348 38 39V45C38 45.2652 38.1054 45.5196 38.2929 45.7071C38.4804 45.8946 38.7348 46 39 46H45C45.2652 46 45.5196 45.8946 45.7071 45.7071C45.8946 45.5196 46 45.2652 46 45V39C46 38.7348 45.8946 38.4804 45.7071 38.2929C45.5196 38.1054 45.2652 38 45 38H39Z" fill="white"/>
<defs>
<linearGradient id="paint0_linear_470_455" x1="64" y1="-3.8147e-06" x2="-3.8147e-06" y2="64" gradientUnits="userSpaceOnUse">
<stop stop-color="#FFAD66"/>
<stop offset="1" stop-color="#C57C38"/>
</linearGradient>
</defs>
</svg>
