<svg width="28" height="28" viewBox="0 0 28 28" fill="none" xmlns="http://www.w3.org/2000/svg">
    <g clip-path="url(#clip0_463_146)">
    <path d="M8.75 0.875H14V5.36375C14 5.56565 13.9198 5.75927 13.777 5.90204C13.6343 6.0448 13.4406 6.125 13.2387 6.125H9.51125C9.30935 6.125 9.11573 6.0448 8.97296 5.90204C8.8302 5.75927 8.75 5.56565 8.75 5.36375V0.875Z" fill="white" fill-opacity="0.5"/>
    <path d="M9.625 22.75H2.625C1.92881 22.75 1.26113 22.4734 0.768845 21.9812C0.276562 21.4889 0 20.8212 0 20.125L0 2.625C0 1.92881 0.276562 1.26113 0.768845 0.768845C1.26113 0.276562 1.92881 0 2.625 0L20.125 0C20.8212 0 21.4889 0.276562 21.9812 0.768845C22.4734 1.26113 22.75 1.92881 22.75 2.625V9.625C22.75 9.85706 22.6578 10.0796 22.4937 10.2437C22.3296 10.4078 22.1071 10.5 21.875 10.5C21.6429 10.5 21.4204 10.4078 21.2563 10.2437C21.0922 10.0796 21 9.85706 21 9.625V2.625C21 2.39294 20.9078 2.17038 20.7437 2.00628C20.5796 1.84219 20.3571 1.75 20.125 1.75H2.625C2.39294 1.75 2.17038 1.84219 2.00628 2.00628C1.84219 2.17038 1.75 2.39294 1.75 2.625V20.125C1.75 20.3571 1.84219 20.5796 2.00628 20.7437C2.17038 20.9078 2.39294 21 2.625 21H9.625C9.85706 21 10.0796 21.0922 10.2437 21.2563C10.4078 21.4204 10.5 21.6429 10.5 21.875C10.5 22.1071 10.4078 22.3296 10.2437 22.4937C10.0796 22.6578 9.85706 22.75 9.625 22.75Z" fill="white"/>
    <path d="M6.125 19.25H4.375C4.14294 19.25 3.92038 19.1578 3.75628 18.9937C3.59219 18.8296 3.5 18.6071 3.5 18.375C3.5 18.1429 3.59219 17.9204 3.75628 17.7563C3.92038 17.5922 4.14294 17.5 4.375 17.5H6.125C6.35706 17.5 6.57962 17.5922 6.74372 17.7563C6.90781 17.9204 7 18.1429 7 18.375C7 18.6071 6.90781 18.8296 6.74372 18.9937C6.57962 19.1578 6.35706 19.25 6.125 19.25Z" fill="white"/>
    <path d="M20.125 28C18.5675 28 17.0449 27.5381 15.7499 26.6728C14.4549 25.8075 13.4455 24.5776 12.8495 23.1386C12.2534 21.6997 12.0975 20.1163 12.4013 18.5887C12.7052 17.0611 13.4552 15.6579 14.5565 14.5565C15.6579 13.4552 17.0611 12.7052 18.5887 12.4013C20.1163 12.0975 21.6997 12.2534 23.1386 12.8495C24.5776 13.4455 25.8075 14.4549 26.6728 15.7499C27.5381 17.0449 28 18.5675 28 20.125C28 22.2136 27.1703 24.2166 25.6935 25.6935C24.2166 27.1703 22.2136 28 20.125 28ZM20.125 14C18.9136 14 17.7294 14.3592 16.7221 15.0323C15.7149 15.7053 14.9298 16.6619 14.4662 17.7811C14.0027 18.9003 13.8814 20.1318 14.1177 21.3199C14.354 22.5081 14.9374 23.5994 15.794 24.456C16.6506 25.3126 17.7419 25.896 18.9301 26.1323C20.1182 26.3686 21.3497 26.2474 22.4689 25.7838C23.5881 25.3202 24.5447 24.5351 25.2178 23.5279C25.8908 22.5206 26.25 21.3364 26.25 20.125C26.25 18.5006 25.6047 16.9426 24.456 15.794C23.3074 14.6453 21.7495 14 20.125 14Z" fill="white"/>
    <path d="M20.125 24.5C22.5412 24.5 24.5 22.5412 24.5 20.125C24.5 17.7088 22.5412 15.75 20.125 15.75C17.7088 15.75 15.75 17.7088 15.75 20.125C15.75 22.5412 17.7088 24.5 20.125 24.5Z" fill="white" fill-opacity="0.5"/>
    <path d="M21.875 19.25H21V18.375C21 18.1429 20.9078 17.9204 20.7437 17.7563C20.5796 17.5922 20.3571 17.5 20.125 17.5C19.8929 17.5 19.6704 17.5922 19.5063 17.7563C19.3422 17.9204 19.25 18.1429 19.25 18.375V19.25H18.375C18.1429 19.25 17.9204 19.3422 17.7563 19.5063C17.5922 19.6704 17.5 19.8929 17.5 20.125C17.5 20.3571 17.5922 20.5796 17.7563 20.7437C17.9204 20.9078 18.1429 21 18.375 21H19.25V21.875C19.25 22.1071 19.3422 22.3296 19.5063 22.4937C19.6704 22.6578 19.8929 22.75 20.125 22.75C20.3571 22.75 20.5796 22.6578 20.7437 22.4937C20.9078 22.3296 21 22.1071 21 21.875V21H21.875C22.1071 21 22.3296 20.9078 22.4937 20.7437C22.6578 20.5796 22.75 20.3571 22.75 20.125C22.75 19.8929 22.6578 19.6704 22.4937 19.5063C22.3296 19.3422 22.1071 19.25 21.875 19.25Z" fill="white"/>
    </g>
    <defs>
    <clipPath id="clip0_463_146">
    <rect width="28" height="28" fill="white"/>
    </clipPath>
    </defs>
</svg>